ISO-10303-21;
HEADER;
FILE_DESCRIPTION(('FreeCAD Model'),'2;1');
FILE_NAME('Open CASCADE Shape Model','2026-09-28T21:48:05',('FreeCAD'),(
    'FreeCAD'),'Open CASCADE STEP processor 7.8','FreeCAD','Unknown');
FILE_SCHEMA(('AUTOMOTIVE_DESIGN { 1 0 10303 214 1 1 1 1 }'));
ENDSEC;
DATA;
#1 = APPLICATION_PROTOCOL_DEFINITION('international standard',
  'automotive_design',2000,#2);
#2 = APPLICATION_CONTEXT(
  'core data for automotive mechanical design processes');
#3 = SHAPE_DEFINITION_REPRESENTATION(#4,#10);
#4 = PRODUCT_DEFINITION_SHAPE('','',#5);
#5 = PRODUCT_DEFINITION('design','',#6,#9);
#6 = PRODUCT_DEFINITION_FORMATION('','',#7);
#7 = PRODUCT('Open CASCADE STEP translator 7.8 1',
  'Open CASCADE STEP translator 7.8 1','',(#8));
#8 = PRODUCT_CONTEXT('',#2,'mechanical');
#9 = PRODUCT_DEFINITION_CONTEXT('part definition',#2,'design');
#10 = ADVANCED_BREP_SHAPE_REPRESENTATION('',(#11,#15),#580);
#11 = AXIS2_PLACEMENT_3D('',#12,#13,#14);
#12 = CARTESIAN_POINT('',(0.,0.,0.));
#13 = DIRECTION('',(0.,0.,1.));
#14 = DIRECTION('',(1.,0.,-0.));
#15 = MANIFOLD_SOLID_BREP('',#16);
#16 = CLOSED_SHELL('',(#17,#526,#546,#571));
#17 = ADVANCED_FACE('',(#18),#278,.T.);
#18 = FACE_BOUND('',#19,.T.);
#19 = EDGE_LOOP('',(#20,#270,#277));
#20 = ORIENTED_EDGE('',*,*,#21,.T.);
#21 = EDGE_CURVE('',#22,#24,#26,.T.);
#22 = VERTEX_POINT('',#23);
#23 = CARTESIAN_POINT('',(0.,0.,0.));
#24 = VERTEX_POINT('',#25);
#25 = CARTESIAN_POINT('',(12.,0.,6.996644390674));
#26 = B_SPLINE_CURVE_WITH_KNOTS('',3,(#27,#28,#29,#30,#31,#32,#33,#34,
    #35,#36,#37,#38,#39,#40,#41,#42,#43,#44,#45,#46,#47,#48,#49,#50,#51,
    #52,#53,#54,#55,#56,#57,#58,#59,#60,#61,#62,#63,#64,#65,#66,#67,#68,
    #69,#70,#71,#72,#73,#74,#75,#76,#77,#78,#79,#80,#81,#82,#83,#84,#85,
    #86,#87,#88,#89,#90,#91,#92,#93,#94,#95,#96,#97,#98,#99,#100,#101,
    #102,#103,#104,#105,#106,#107,#108,#109,#110,#111,#112,#113,#114,
    #115,#116,#117,#118,#119,#120,#121,#122,#123,#124,#125,#126,#127,
    #128,#129,#130,#131,#132,#133,#134,#135,#136,#137,#138,#139,#140,
    #141,#142,#143,#144,#145,#146,#147,#148,#149,#150,#151,#152,#153,
    #154,#155,#156,#157,#158,#159,#160,#161,#162,#163,#164,#165,#166,
    #167,#168,#169,#170,#171,#172,#173,#174,#175,#176,#177,#178,#179,
    #180,#181,#182,#183,#184,#185,#186,#187,#188,#189,#190,#191,#192,
    #193,#194,#195,#196,#197,#198,#199,#200,#201,#202,#203,#204,#205,
    #206,#207,#208,#209,#210,#211,#212,#213,#214,#215,#216,#217,#218,
    #219,#220,#221,#222,#223,#224,#225,#226,#227,#228,#229,#230,#231,
    #232,#233,#234,#235,#236,#237,#238,#239,#240,#241,#242,#243,#244,
    #245,#246,#247,#248,#249,#250,#251,#252,#253,#254,#255,#256,#257,
    #258,#259,#260,#261,#262,#263,#264,#265,#266,#267,#268,#269),
  .UNSPECIFIED.,.F.,.F.,(4,1,1,1,1,1,1,1,1,1,1,1,1,1,1,1,1,1,1,1,1,1,1,1
    ,1,1,1,1,1,1,1,1,1,1,1,1,1,1,1,1,1,1,1,1,1,1,1,1,1,1,1,1,1,1,1,1,1,1
    ,1,1,1,1,1,1,1,1,1,1,1,1,1,1,1,1,1,1,1,1,1,1,1,1,1,1,1,1,1,1,1,1,1,1
    ,1,1,1,1,1,1,1,1,1,1,1,1,1,1,1,1,1,1,1,1,1,1,1,1,1,1,1,1,1,1,1,1,1,1
    ,1,1,1,1,1,1,1,1,1,1,1,1,1,1,1,1,1,1,1,1,1,1,1,1,1,1,1,1,1,1,1,1,1,1
    ,1,1,1,1,1,1,1,1,1,1,1,1,1,1,1,1,1,1,1,1,1,1,1,1,1,1,1,1,1,1,1,1,1,1
    ,1,1,1,1,1,1,1,1,1,1,1,1,1,1,1,1,1,1,1,1,1,1,1,1,1,1,1,1,1,1,1,1,1,1
    ,1,1,1,1,1,1,1,1,1,1,1,1,4),(0.,5.00063293507E-02,0.100063320012,
    0.150221774549,0.200532776709,0.251047840203,0.301819041061,
    0.352899173136,0.40434188658,0.456201832755,0.5085348346,
    0.561397995739,0.614849890785,0.668950703037,0.723762392052,
    0.779348809111,0.835613178675,0.891955922151,0.948314955566,
    1.004690295666,1.061081962564,1.117489979826,1.173914374397,
    1.230355176531,1.286812419381,1.343286138479,1.399776373032,
    1.456283163979,1.512806555266,1.56934659293,1.625903325288,
    1.682476802507,1.739067077226,1.79567420311,1.852298236487,
    1.908939234835,1.965597256608,2.022272362707,2.078964614357,
    2.135674074884,2.19240080764,2.249144878082,2.305906351957,
    2.362685295604,2.419481776788,2.476295863622,2.53312762429,
    2.589977128405,2.646844445676,2.703729645265,2.760632798185,
    2.817553974617,2.874493244871,2.931450679871,2.988426350266,
    3.045420326561,3.102432679463,3.159463479832,3.216512797032,
    3.273580701779,3.330667263079,3.387772551165,3.444896634712,
    3.502039581816,3.559201461337,3.616382340781,3.673582286729,
    3.730801365621,3.788039644281,3.845297186915,3.902574059021,
    3.959870323796,4.017186044163,4.074521283646,4.131876103197,
    4.189250563166,4.246644724828,4.304058645704,4.361492385545,
    4.418946001021,4.476419548368,4.533913083958,4.59142666157,
    4.648960334539,4.706514156882,4.764088180191,4.821682454011,
    4.879297028059,4.936931952211,4.994587274096,5.052263039186,
    5.109959293298,5.167676081821,5.225413447577,5.283171432862,
    5.34095008017,5.398749428094,5.456569517084,5.514410384316,
    5.572272067785,5.630154601945,5.688058023673,5.745982366112,
    5.803927661048,5.86189393987,5.91988123506,5.977889573677,
    6.035918986582,6.093969498813,6.152041136734,6.210133926508,
    6.268247892662,6.326383055941,6.384539439673,6.442717066026,
    6.500915951833,6.559136117397,6.617377579542,6.67564035586,
    6.733924461843,6.792229911125,6.850556717889,6.908904893073,
    6.967274451263,7.025665399591,7.084077751113,7.142511510801,
    7.20096668693,7.259443287161,7.317941315819,7.376460778045,
    7.435001676704,7.493564015075,7.552147795379,7.610753015885,
    7.669379678776,7.728027783806,7.786697325379,7.845388303834,
    7.904100712375,7.962834550822,8.021589808708,8.080366482128,
    8.139164562043,8.197984043314,8.256824914133,8.315687164452,
    8.374570787161,8.433475766998,8.492402093458,8.551349751016,
    8.610318731406,8.6693090149,8.728320586079,8.787353433961,
    8.846407535804,8.905482876872,8.964579437631,9.02369720004,
    9.082836142937,9.141996248087,9.201177492519,9.260379854288,
    9.319603310776,9.378847840951,9.438113419143,9.497400019725,
    9.556707618314,9.616036191831,9.675385712683,9.73475614861,
    9.794147481202,9.853559675437,9.912992702423,9.972446540282,
    10.031921149014,10.091416503625,10.150932574937,10.21046932945,
    10.270026729761,10.329604753425,10.38920336024,10.448822516534,
    10.508462194033,10.568122350345,10.627802958084,10.687503976269,
    10.747225369011,10.806967104629,10.866729140746,10.926511445346,
    10.986313976315,11.046136696024,11.105979566514,11.165842552898,
    11.225725610065,11.285628699758,11.34555178368,11.405494819738,
    11.465457764174,11.525440585139,11.585443232773,11.645465666765,
    11.705507845463,11.76556972352,11.825651266548,11.885752418733,
    11.945873149736,12.006013407619,12.066173147602,12.12635233317,
    12.18655091135,12.246768840468,12.307006071882,12.367262564545,
    12.427538274127,12.487833152931,12.548147149797,12.608480224489,
    12.668832322255,12.729203409609,12.789593429179,12.850002333514,
    12.910430083749,12.970876623888,13.031341905666,13.091825883054,
    13.152328513079,13.212849740132,13.273389516075,13.333947793518,
    13.394524530749,13.455119661346,13.515733157757,13.576364953766,
    13.63701500457,13.69768326257,13.758369677308,13.819074195387,
    13.879796770074,13.940537354218),.UNSPECIFIED.);
#27 = CARTESIAN_POINT('',(0.,0.,0.));
#28 = CARTESIAN_POINT('',(1.66695167699E-02,0.,-3.416050889336E-07));
#29 = CARTESIAN_POINT('',(5.00253073777E-02,0.,5.310553385753E-04));
#30 = CARTESIAN_POINT('',(0.100050648392,0.,2.920644044078E-03));
#31 = CARTESIAN_POINT('',(0.150075946758,0.,6.907563366626E-03));
#32 = CARTESIAN_POINT('',(0.200101236754,0.,1.249726828373E-02));
#33 = CARTESIAN_POINT('',(0.250126493433,0.,1.969808833776E-02));
#34 = CARTESIAN_POINT('',(0.30015171983,0.,2.852049823652E-02));
#35 = CARTESIAN_POINT('',(0.3501769021,0.,3.897750445317E-02));
#36 = CARTESIAN_POINT('',(0.400202027818,0.,5.108452540252E-02));
#37 = CARTESIAN_POINT('',(0.450227103813,0.,6.485942871869E-02));
#38 = CARTESIAN_POINT('',(0.500252086384,0.,8.032277592688E-02));
#39 = CARTESIAN_POINT('',(0.55027699958,0.,9.749755447556E-02));
#40 = CARTESIAN_POINT('',(0.600301778569,0.,0.116409526354));
#41 = CARTESIAN_POINT('',(0.650326552047,0.,0.137087250776));
#42 = CARTESIAN_POINT('',(0.700350770707,0.,0.15956175118));
#43 = CARTESIAN_POINT('',(0.750327564904,0.,0.183844761961));
#44 = CARTESIAN_POINT('',(0.8000068643,0.,0.209835115019));
#45 = CARTESIAN_POINT('',(0.850012249519,0.,0.235749651497));
#46 = CARTESIAN_POINT('',(0.900005885884,0.,0.261768856306));
#47 = CARTESIAN_POINT('',(0.950007600007,0.,0.287807343472));
#48 = CARTESIAN_POINT('',(1.000007150692,0.,0.313885454418));
#49 = CARTESIAN_POINT('',(1.050007283214,0.,0.339997751246));
#50 = CARTESIAN_POINT('',(1.100007261628,0.,0.366145715855));
#51 = CARTESIAN_POINT('',(1.150007283051,0.,0.392328984243));
#52 = CARTESIAN_POINT('',(1.200007294211,0.,0.418547695684));
#53 = CARTESIAN_POINT('',(1.250007310183,0.,0.444801860189));
#54 = CARTESIAN_POINT('',(1.300007325898,0.,0.471091533077));
#55 = CARTESIAN_POINT('',(1.350007343299,0.,0.497416761827));
#56 = CARTESIAN_POINT('',(1.400007361453,0.,0.523777604253));
#57 = CARTESIAN_POINT('',(1.450007380687,0.,0.550174120865));
#58 = CARTESIAN_POINT('',(1.50000740062,0.,0.576606377798));
#59 = CARTESIAN_POINT('',(1.550007421778,0.,0.603074444006));
#60 = CARTESIAN_POINT('',(1.600007443173,0.,0.629578394913));
#61 = CARTESIAN_POINT('',(1.650007465906,0.,0.656118306184));
#62 = CARTESIAN_POINT('',(1.700007489055,0.,0.682694260526));
#63 = CARTESIAN_POINT('',(1.750007512516,0.,0.709306342271));
#64 = CARTESIAN_POINT('',(1.800007537258,0.,0.735954636751));
#65 = CARTESIAN_POINT('',(1.850007561849,0.,0.762639236211));
#66 = CARTESIAN_POINT('',(1.900007587626,0.,0.789360230901));
#67 = CARTESIAN_POINT('',(1.950007613103,0.,0.816117717827));
#68 = CARTESIAN_POINT('',(2.000007639733,0.,0.842911791223));
#69 = CARTESIAN_POINT('',(2.050007666327,0.,0.869742551694));
#70 = CARTESIAN_POINT('',(2.100007693152,0.,0.896610098944));
#71 = CARTESIAN_POINT('',(2.150007720658,0.,0.923514533688));
#72 = CARTESIAN_POINT('',(2.200007748261,0.,0.950455959932));
#73 = CARTESIAN_POINT('',(2.250007775788,0.,0.977434481923));
#74 = CARTESIAN_POINT('',(2.300007804037,0.,1.004450203111));
#75 = CARTESIAN_POINT('',(2.350007832292,0.,1.031503230566));
#76 = CARTESIAN_POINT('',(2.400007860097,0.,1.058593671256));
#77 = CARTESIAN_POINT('',(2.450007888977,0.,1.085721629177));
#78 = CARTESIAN_POINT('',(2.500007917241,0.,1.112887214273));
#79 = CARTESIAN_POINT('',(2.550007945596,0.,1.140090532566));
#80 = CARTESIAN_POINT('',(2.600007974239,0.,1.167331690656));
#81 = CARTESIAN_POINT('',(2.650008002683,0.,1.194610796415));
#82 = CARTESIAN_POINT('',(2.700008031046,0.,1.221927956434));
#83 = CARTESIAN_POINT('',(2.750008059446,0.,1.249283276851));
#84 = CARTESIAN_POINT('',(2.800008088024,0.,1.276676863606));
#85 = CARTESIAN_POINT('',(2.85000811562,0.,1.30410882392));
#86 = CARTESIAN_POINT('',(2.900008144173,0.,1.33157925907));
#87 = CARTESIAN_POINT('',(2.950008171541,0.,1.359088276186));
#88 = CARTESIAN_POINT('',(3.000008199785,0.,1.386635975057));
#89 = CARTESIAN_POINT('',(3.050008227088,0.,1.414222460826));
#90 = CARTESIAN_POINT('',(3.100008254116,0.,1.441847833198));
#91 = CARTESIAN_POINT('',(3.150008281608,0.,1.469512190531));
#92 = CARTESIAN_POINT('',(3.200008308341,0.,1.497215633642));
#93 = CARTESIAN_POINT('',(3.250008334677,0.,1.524958259161));
#94 = CARTESIAN_POINT('',(3.300008360865,0.,1.552740161997));
#95 = CARTESIAN_POINT('',(3.350008387442,0.,1.580561435803));
#96 = CARTESIAN_POINT('',(3.400008412418,0.,1.60842217688));
#97 = CARTESIAN_POINT('',(3.450008438399,0.,1.636322472384));
#98 = CARTESIAN_POINT('',(3.500008463006,0.,1.66426241567));
#99 = CARTESIAN_POINT('',(3.55000848755,0.,1.692242092364));
#100 = CARTESIAN_POINT('',(3.600008512513,0.,1.720261587994));
#101 = CARTESIAN_POINT('',(3.650008536102,0.,1.748320990376));
#102 = CARTESIAN_POINT('',(3.700008559378,0.,1.776420380254));
#103 = CARTESIAN_POINT('',(3.750008583429,0.,1.804559836586));
#104 = CARTESIAN_POINT('',(3.800008605157,0.,1.832739443211));
#105 = CARTESIAN_POINT('',(3.850008628534,0.,1.860959270805));
#106 = CARTESIAN_POINT('',(3.90000865004,0.,1.889219400007));
#107 = CARTESIAN_POINT('',(3.950008671502,0.,1.917519900906));
#108 = CARTESIAN_POINT('',(4.000008693132,0.,1.945860843991));
#109 = CARTESIAN_POINT('',(4.05000871339,0.,1.974242300694));
#110 = CARTESIAN_POINT('',(4.10000873348,0.,2.002664335477));
#111 = CARTESIAN_POINT('',(4.150008754027,0.,2.031127012073));
#112 = CARTESIAN_POINT('',(4.200008773336,0.,2.059630396652));
#113 = CARTESIAN_POINT('',(4.250008791691,0.,2.088174549199));
#114 = CARTESIAN_POINT('',(4.300008810171,0.,2.116759525272));
#115 = CARTESIAN_POINT('',(4.35000882879,0.,2.145385381009));
#116 = CARTESIAN_POINT('',(4.400008846324,0.,2.174052173289));
#117 = CARTESIAN_POINT('',(4.450008862807,0.,2.202759953816));
#118 = CARTESIAN_POINT('',(4.50000887955,0.,2.231508769244));
#119 = CARTESIAN_POINT('',(4.550008896146,0.,2.260298667607));
#120 = CARTESIAN_POINT('',(4.600008911444,0.,2.28912969636));
#121 = CARTESIAN_POINT('',(4.650008926507,0.,2.318001896662));
#122 = CARTESIAN_POINT('',(4.700008941962,0.,2.346915308424));
#123 = CARTESIAN_POINT('',(4.750008955098,0.,2.375869974419));
#124 = CARTESIAN_POINT('',(4.800008969735,0.,2.404865924842));
#125 = CARTESIAN_POINT('',(4.850008982267,0.,2.433903199104));
#126 = CARTESIAN_POINT('',(4.900008995791,0.,2.462981824608));
#127 = CARTESIAN_POINT('',(4.950009007046,0.,2.492101835664));
#128 = CARTESIAN_POINT('',(5.000009020091,0.,2.521263253772));
#129 = CARTESIAN_POINT('',(5.05000903095,0.,2.550466110967));
#130 = CARTESIAN_POINT('',(5.100009041459,0.,2.579710427521));
#131 = CARTESIAN_POINT('',(5.150009051555,0.,2.608996223316));
#132 = CARTESIAN_POINT('',(5.200009062707,0.,2.638323515178));
#133 = CARTESIAN_POINT('',(5.250009070496,0.,2.66769232683));
#134 = CARTESIAN_POINT('',(5.300009081107,0.,2.697102663596));
#135 = CARTESIAN_POINT('',(5.350009088141,0.,2.726554547315));
#136 = CARTESIAN_POINT('',(5.400009096364,0.,2.756047980402));
#137 = CARTESIAN_POINT('',(5.450009104281,0.,2.78558297285));
#138 = CARTESIAN_POINT('',(5.50000911168,0.,2.815159532157));
#139 = CARTESIAN_POINT('',(5.550009116974,0.,2.84477766449));
#140 = CARTESIAN_POINT('',(5.600009123832,0.,2.874437365329));
#141 = CARTESIAN_POINT('',(5.650009130261,0.,2.904138638218));
#142 = CARTESIAN_POINT('',(5.700009133673,0.,2.933881485176));
#143 = CARTESIAN_POINT('',(5.750009139504,0.,2.963665892822));
#144 = CARTESIAN_POINT('',(5.800009143075,0.,2.993491861351));
#145 = CARTESIAN_POINT('',(5.850009147465,0.,3.023359378504));
#146 = CARTESIAN_POINT('',(5.900009150749,0.,3.053268437353));
#147 = CARTESIAN_POINT('',(5.950009153089,0.,3.083219025475));
#148 = CARTESIAN_POINT('',(6.00000915612,0.,3.113211125878));
#149 = CARTESIAN_POINT('',(6.050009156946,0.,3.143244726254));
#150 = CARTESIAN_POINT('',(6.100009160586,0.,3.173319801843));
#151 = CARTESIAN_POINT('',(6.150009159395,0.,3.203436344476));
#152 = CARTESIAN_POINT('',(6.200009162528,0.,3.233594319559));
#153 = CARTESIAN_POINT('',(6.250009160592,0.,3.263793717173));
#154 = CARTESIAN_POINT('',(6.300009161073,0.,3.294034500285));
#155 = CARTESIAN_POINT('',(6.350009161069,0.,3.324316645722));
#156 = CARTESIAN_POINT('',(6.400009159344,0.,3.354640127246));
#157 = CARTESIAN_POINT('',(6.450009158389,0.,3.385004910597));
#158 = CARTESIAN_POINT('',(6.500009156101,0.,3.415410966145));
#159 = CARTESIAN_POINT('',(6.550009154193,0.,3.445858257448));
#160 = CARTESIAN_POINT('',(6.600009151981,0.,3.476346750288));
#161 = CARTESIAN_POINT('',(6.650009147497,0.,3.506876409744));
#162 = CARTESIAN_POINT('',(6.700009145357,0.,3.537447189578));
#163 = CARTESIAN_POINT('',(6.750009142109,0.,3.568059055348));
#164 = CARTESIAN_POINT('',(6.800009135713,0.,3.598711967967));
#165 = CARTESIAN_POINT('',(6.850009133397,0.,3.629405872244));
#166 = CARTESIAN_POINT('',(6.900009126181,0.,3.660140735395));
#167 = CARTESIAN_POINT('',(6.950009123893,0.,3.690916497652));
#168 = CARTESIAN_POINT('',(7.000009115018,0.,3.72173312724));
#169 = CARTESIAN_POINT('',(7.050009110899,0.,3.752590557296));
#170 = CARTESIAN_POINT('',(7.100009103035,0.,3.783488747708));
#171 = CARTESIAN_POINT('',(7.150009098197,0.,3.814427637198));
#172 = CARTESIAN_POINT('',(7.200009089428,0.,3.845407181876));
#173 = CARTESIAN_POINT('',(7.250009081773,0.,3.876427318014));
#174 = CARTESIAN_POINT('',(7.30000907607,0.,3.907487987656));
#175 = CARTESIAN_POINT('',(7.350009065496,0.,3.938589143179));
#176 = CARTESIAN_POINT('',(7.400009058524,0.,3.969730712279));
#177 = CARTESIAN_POINT('',(7.450009047759,0.,4.000912643056));
#178 = CARTESIAN_POINT('',(7.500009042075,0.,4.03213486213));
#179 = CARTESIAN_POINT('',(7.550009029616,0.,4.063397323741));
#180 = CARTESIAN_POINT('',(7.600009019813,0.,4.094699948329));
#181 = CARTESIAN_POINT('',(7.650009012765,0.,4.126042669816));
#182 = CARTESIAN_POINT('',(7.70000899876,0.,4.15742543606));
#183 = CARTESIAN_POINT('',(7.750008990156,0.,4.188848160412));
#184 = CARTESIAN_POINT('',(7.80000897812,0.,4.220310784843));
#185 = CARTESIAN_POINT('',(7.850008967673,0.,4.25181323245));
#186 = CARTESIAN_POINT('',(7.90000895508,0.,4.283355436457));
#187 = CARTESIAN_POINT('',(7.950008944638,0.,4.314937318395));
#188 = CARTESIAN_POINT('',(8.000008931363,0.,4.346558811651));
#189 = CARTESIAN_POINT('',(8.050008919113,0.,4.378219835367));
#190 = CARTESIAN_POINT('',(8.100008906169,0.,4.409920315018));
#191 = CARTESIAN_POINT('',(8.150008894459,0.,4.441660171772));
#192 = CARTESIAN_POINT('',(8.200008880209,0.,4.4734393337));
#193 = CARTESIAN_POINT('',(8.250008866285,0.,4.50525771679));
#194 = CARTESIAN_POINT('',(8.300008852814,0.,4.537115239519));
#195 = CARTESIAN_POINT('',(8.35000884011,0.,4.569011821923));
#196 = CARTESIAN_POINT('',(8.400008825608,0.,4.600947387575));
#197 = CARTESIAN_POINT('',(8.450008807788,0.,4.632921853762));
#198 = CARTESIAN_POINT('',(8.500008798583,0.,4.664935119908));
#199 = CARTESIAN_POINT('',(8.550008779558,0.,4.696987128531));
#200 = CARTESIAN_POINT('',(8.600008764254,0.,4.729077774539));
#201 = CARTESIAN_POINT('',(8.650008753331,0.,4.76120697111));
#202 = CARTESIAN_POINT('',(8.70000873165,0.,4.793374653138));
#203 = CARTESIAN_POINT('',(8.750008719322,0.,4.825580703372));
#204 = CARTESIAN_POINT('',(8.800008703628,0.,4.857825051357));
#205 = CARTESIAN_POINT('',(8.850008686916,0.,4.890107607469));
#206 = CARTESIAN_POINT('',(8.900008667,0.,4.922428281741));
#207 = CARTESIAN_POINT('',(8.950008656351,0.,4.954786965961));
#208 = CARTESIAN_POINT('',(9.000008635173,0.,4.987183597915));
#209 = CARTESIAN_POINT('',(9.05000861817,0.,5.019618064637));
#210 = CARTESIAN_POINT('',(9.100008604434,0.,5.052090273993));
#211 = CARTESIAN_POINT('',(9.150008581995,0.,5.084600149752));
#212 = CARTESIAN_POINT('',(9.200008569282,0.,5.11714757304));
#213 = CARTESIAN_POINT('',(9.25000854808,0.,5.149732473801));
#214 = CARTESIAN_POINT('',(9.30000853024,0.,5.182354740021));
#215 = CARTESIAN_POINT('',(9.350008514879,0.,5.215014276909));
#216 = CARTESIAN_POINT('',(9.400008493001,0.,5.247711001463));
#217 = CARTESIAN_POINT('',(9.450008477992,0.,5.280444799075));
#218 = CARTESIAN_POINT('',(9.500008456559,0.,5.313215589826));
#219 = CARTESIAN_POINT('',(9.550008438493,0.,5.346023261685));
#220 = CARTESIAN_POINT('',(9.600008419339,0.,5.378867721022));
#221 = CARTESIAN_POINT('',(9.650008402738,0.,5.411748866518));
#222 = CARTESIAN_POINT('',(9.700008380168,0.,5.444666611065));
#223 = CARTESIAN_POINT('',(9.750008361869,0.,5.47762083912));
#224 = CARTESIAN_POINT('',(9.800008343067,0.,5.510611456154));
#225 = CARTESIAN_POINT('',(9.850008322891,0.,5.543638363784));
#226 = CARTESIAN_POINT('',(9.900008300952,0.,5.576701459824));
#227 = CARTESIAN_POINT('',(9.950008286581,0.,5.609800631572));
#228 = CARTESIAN_POINT('',(10.000008261508,0.,5.642935803574));
#229 = CARTESIAN_POINT('',(10.050008242713,0.,5.676106849488));
#230 = CARTESIAN_POINT('',(10.100008222823,0.,5.709313674088));
#231 = CARTESIAN_POINT('',(10.150008200168,0.,5.742556176495));
#232 = CARTESIAN_POINT('',(10.200008185272,0.,5.775834241344));
#233 = CARTESIAN_POINT('',(10.250008156534,0.,5.809147793247));
#234 = CARTESIAN_POINT('',(10.300008144027,0.,5.84249668853));
#235 = CARTESIAN_POINT('',(10.350008118075,0.,5.875880862863));
#236 = CARTESIAN_POINT('',(10.400008096912,0.,5.909300186954));
#237 = CARTESIAN_POINT('',(10.450008080354,0.,5.942754555704));
#238 = CARTESIAN_POINT('',(10.500008054156,0.,5.976243884607));
#239 = CARTESIAN_POINT('',(10.550008035538,0.,6.009768044288));
#240 = CARTESIAN_POINT('',(10.600008011773,0.,6.043326943071));
#241 = CARTESIAN_POINT('',(10.650007992863,0.,6.076920462766));
#242 = CARTESIAN_POINT('',(10.700007971675,0.,6.110548509377));
#243 = CARTESIAN_POINT('',(10.750007949672,0.,6.144210976907));
#244 = CARTESIAN_POINT('',(10.800007924938,0.,6.17790775859));
#245 = CARTESIAN_POINT('',(10.85000790746,0.,6.21163873271));
#246 = CARTESIAN_POINT('',(10.900007879968,0.,6.245403813992));
#247 = CARTESIAN_POINT('',(10.950007866223,0.,6.279202867166));
#248 = CARTESIAN_POINT('',(11.000007838122,0.,6.313035823751));
#249 = CARTESIAN_POINT('',(11.050007816257,0.,6.346902547822));
#250 = CARTESIAN_POINT('',(11.100007798889,0.,6.380802933554));
#251 = CARTESIAN_POINT('',(11.150007771996,0.,6.414736894247));
#252 = CARTESIAN_POINT('',(11.200007750244,0.,6.448704300672));
#253 = CARTESIAN_POINT('',(11.250007728405,0.,6.482705048921));
#254 = CARTESIAN_POINT('',(11.300007709178,0.,6.516739031373));
#255 = CARTESIAN_POINT('',(11.350007682725,0.,6.550806154693));
#256 = CARTESIAN_POINT('',(11.400007661222,0.,6.584906292218));
#257 = CARTESIAN_POINT('',(11.450007638397,0.,6.619039341985));
#258 = CARTESIAN_POINT('',(11.500007621094,0.,6.653205191269));
#259 = CARTESIAN_POINT('',(11.550007587482,0.,6.687403758696));
#260 = CARTESIAN_POINT('',(11.600007578372,0.,6.72163488328));
#261 = CARTESIAN_POINT('',(11.650007545097,0.,6.755898520532));
#262 = CARTESIAN_POINT('',(11.700007526238,0.,6.790194511531));
#263 = CARTESIAN_POINT('',(11.750007503825,0.,6.824522768324));
#264 = CARTESIAN_POINT('',(11.800007481045,0.,6.858883181582));
#265 = CARTESIAN_POINT('',(11.850007456324,0.,6.893275644085));
#266 = CARTESIAN_POINT('',(11.900007435256,0.,6.927700038935));
#267 = CARTESIAN_POINT('',(11.950007413522,0.,6.962156265785));
#268 = CARTESIAN_POINT('',(11.983335799461,-0.,6.985144833205));
#269 = CARTESIAN_POINT('',(12.,0.,6.996644390674));
#270 = ORIENTED_EDGE('',*,*,#271,.F.);
#271 = EDGE_CURVE('',#24,#24,#272,.T.);
#272 = CIRCLE('',#273,12.);
#273 = AXIS2_PLACEMENT_3D('',#274,#275,#276);
#274 = CARTESIAN_POINT('',(0.,0.,6.996644390674));
#275 = DIRECTION('',(0.,0.,1.));
#276 = DIRECTION('',(1.,0.,-0.));
#277 = ORIENTED_EDGE('',*,*,#21,.F.);
#278 = SURFACE_OF_REVOLUTION('',#279,#523);
#279 = B_SPLINE_CURVE_WITH_KNOTS('',3,(#280,#281,#282,#283,#284,#285,
    #286,#287,#288,#289,#290,#291,#292,#293,#294,#295,#296,#297,#298,
    #299,#300,#301,#302,#303,#304,#305,#306,#307,#308,#309,#310,#311,
    #312,#313,#314,#315,#316,#317,#318,#319,#320,#321,#322,#323,#324,
    #325,#326,#327,#328,#329,#330,#331,#332,#333,#334,#335,#336,#337,
    #338,#339,#340,#341,#342,#343,#344,#345,#346,#347,#348,#349,#350,
    #351,#352,#353,#354,#355,#356,#357,#358,#359,#360,#361,#362,#363,
    #364,#365,#366,#367,#368,#369,#370,#371,#372,#373,#374,#375,#376,
    #377,#378,#379,#380,#381,#382,#383,#384,#385,#386,#387,#388,#389,
    #390,#391,#392,#393,#394,#395,#396,#397,#398,#399,#400,#401,#402,
    #403,#404,#405,#406,#407,#408,#409,#410,#411,#412,#413,#414,#415,
    #416,#417,#418,#419,#420,#421,#422,#423,#424,#425,#426,#427,#428,
    #429,#430,#431,#432,#433,#434,#435,#436,#437,#438,#439,#440,#441,
    #442,#443,#444,#445,#446,#447,#448,#449,#450,#451,#452,#453,#454,
    #455,#456,#457,#458,#459,#460,#461,#462,#463,#464,#465,#466,#467,
    #468,#469,#470,#471,#472,#473,#474,#475,#476,#477,#478,#479,#480,
    #481,#482,#483,#484,#485,#486,#487,#488,#489,#490,#491,#492,#493,
    #494,#495,#496,#497,#498,#499,#500,#501,#502,#503,#504,#505,#506,
    #507,#508,#509,#510,#511,#512,#513,#514,#515,#516,#517,#518,#519,
    #520,#521,#522),.UNSPECIFIED.,.F.,.F.,(4,1,1,1,1,1,1,1,1,1,1,1,1,1,1
    ,1,1,1,1,1,1,1,1,1,1,1,1,1,1,1,1,1,1,1,1,1,1,1,1,1,1,1,1,1,1,1,1,1,1
    ,1,1,1,1,1,1,1,1,1,1,1,1,1,1,1,1,1,1,1,1,1,1,1,1,1,1,1,1,1,1,1,1,1,1
    ,1,1,1,1,1,1,1,1,1,1,1,1,1,1,1,1,1,1,1,1,1,1,1,1,1,1,1,1,1,1,1,1,1,1
    ,1,1,1,1,1,1,1,1,1,1,1,1,1,1,1,1,1,1,1,1,1,1,1,1,1,1,1,1,1,1,1,1,1,1
    ,1,1,1,1,1,1,1,1,1,1,1,1,1,1,1,1,1,1,1,1,1,1,1,1,1,1,1,1,1,1,1,1,1,1
    ,1,1,1,1,1,1,1,1,1,1,1,1,1,1,1,1,1,1,1,1,1,1,1,1,1,1,1,1,1,1,1,1,1,1
    ,1,1,1,1,1,1,1,1,1,1,1,1,1,1,1,1,1,1,1,1,1,4),(0.,5.00063293507E-02,
    0.100063320012,0.150221774549,0.200532776709,0.251047840203,
    0.301819041061,0.352899173136,0.40434188658,0.456201832755,
    0.5085348346,0.561397995739,0.614849890785,0.668950703037,
    0.723762392052,0.779348809111,0.835613178675,0.891955922151,
    0.948314955566,1.004690295666,1.061081962564,1.117489979826,
    1.173914374397,1.230355176531,1.286812419381,1.343286138479,
    1.399776373032,1.456283163979,1.512806555266,1.56934659293,
    1.625903325288,1.682476802507,1.739067077226,1.79567420311,
    1.852298236487,1.908939234835,1.965597256608,2.022272362707,
    2.078964614357,2.135674074884,2.19240080764,2.249144878082,
    2.305906351957,2.362685295604,2.419481776788,2.476295863622,
    2.53312762429,2.589977128405,2.646844445676,2.703729645265,
    2.760632798185,2.817553974617,2.874493244871,2.931450679871,
    2.988426350266,3.045420326561,3.102432679463,3.159463479832,
    3.216512797032,3.273580701779,3.330667263079,3.387772551165,
    3.444896634712,3.502039581816,3.559201461337,3.616382340781,
    3.673582286729,3.730801365621,3.788039644281,3.845297186915,
    3.902574059021,3.959870323796,4.017186044163,4.074521283646,
    4.131876103197,4.189250563166,4.246644724828,4.304058645704,
    4.361492385545,4.418946001021,4.476419548368,4.533913083958,
    4.59142666157,4.648960334539,4.706514156882,4.764088180191,
    4.821682454011,4.879297028059,4.936931952211,4.994587274096,
    5.052263039186,5.109959293298,5.167676081821,5.225413447577,
    5.283171432862,5.34095008017,5.398749428094,5.456569517084,
    5.514410384316,5.572272067785,5.630154601945,5.688058023673,
    5.745982366112,5.803927661048,5.86189393987,5.91988123506,
    5.977889573677,6.035918986582,6.093969498813,6.152041136734,
    6.210133926508,6.268247892662,6.326383055941,6.384539439673,
    6.442717066026,6.500915951833,6.559136117397,6.617377579542,
    6.67564035586,6.733924461843,6.792229911125,6.850556717889,
    6.908904893073,6.967274451263,7.025665399591,7.084077751113,
    7.142511510801,7.20096668693,7.259443287161,7.317941315819,
    7.376460778045,7.435001676704,7.493564015075,7.552147795379,
    7.610753015885,7.669379678776,7.728027783806,7.786697325379,
    7.845388303834,7.904100712375,7.962834550822,8.021589808708,
    8.080366482128,8.139164562043,8.197984043314,8.256824914133,
    8.315687164452,8.374570787161,8.433475766998,8.492402093458,
    8.551349751016,8.610318731406,8.6693090149,8.728320586079,
    8.787353433961,8.846407535804,8.905482876872,8.964579437631,
    9.02369720004,9.082836142937,9.141996248087,9.201177492519,
    9.260379854288,9.319603310776,9.378847840951,9.438113419143,
    9.497400019725,9.556707618314,9.616036191831,9.675385712683,
    9.73475614861,9.794147481202,9.853559675437,9.912992702423,
    9.972446540282,10.031921149014,10.091416503625,10.150932574937,
    10.21046932945,10.270026729761,10.329604753425,10.38920336024,
    10.448822516534,10.508462194033,10.568122350345,10.627802958084,
    10.687503976269,10.747225369011,10.806967104629,10.866729140746,
    10.926511445346,10.986313976315,11.046136696024,11.105979566514,
    11.165842552898,11.225725610065,11.285628699758,11.34555178368,
    11.405494819738,11.465457764174,11.525440585139,11.585443232773,
    11.645465666765,11.705507845463,11.76556972352,11.825651266548,
    11.885752418733,11.945873149736,12.006013407619,12.066173147602,
    12.12635233317,12.18655091135,12.246768840468,12.307006071882,
    12.367262564545,12.427538274127,12.487833152931,12.548147149797,
    12.608480224489,12.668832322255,12.729203409609,12.789593429179,
    12.850002333514,12.910430083749,12.970876623888,13.031341905666,
    13.091825883054,13.152328513079,13.212849740132,13.273389516075,
    13.333947793518,13.394524530749,13.455119661346,13.515733157757,
    13.576364953766,13.63701500457,13.69768326257,13.758369677308,
    13.819074195387,13.879796770074,13.940537354218),.UNSPECIFIED.);
#280 = CARTESIAN_POINT('',(0.,0.,0.));
#281 = CARTESIAN_POINT('',(1.66695167699E-02,0.,-3.416050889336E-07));
#282 = CARTESIAN_POINT('',(5.00253073777E-02,0.,5.310553385753E-04));
#283 = CARTESIAN_POINT('',(0.100050648392,0.,2.920644044078E-03));
#284 = CARTESIAN_POINT('',(0.150075946758,0.,6.907563366626E-03));
#285 = CARTESIAN_POINT('',(0.200101236754,0.,1.249726828373E-02));
#286 = CARTESIAN_POINT('',(0.250126493433,0.,1.969808833776E-02));
#287 = CARTESIAN_POINT('',(0.30015171983,0.,2.852049823652E-02));
#288 = CARTESIAN_POINT('',(0.3501769021,0.,3.897750445317E-02));
#289 = CARTESIAN_POINT('',(0.400202027818,0.,5.108452540252E-02));
#290 = CARTESIAN_POINT('',(0.450227103813,0.,6.485942871869E-02));
#291 = CARTESIAN_POINT('',(0.500252086384,0.,8.032277592688E-02));
#292 = CARTESIAN_POINT('',(0.55027699958,0.,9.749755447556E-02));
#293 = CARTESIAN_POINT('',(0.600301778569,0.,0.116409526354));
#294 = CARTESIAN_POINT('',(0.650326552047,0.,0.137087250776));
#295 = CARTESIAN_POINT('',(0.700350770707,0.,0.15956175118));
#296 = CARTESIAN_POINT('',(0.750327564904,0.,0.183844761961));
#297 = CARTESIAN_POINT('',(0.8000068643,0.,0.209835115019));
#298 = CARTESIAN_POINT('',(0.850012249519,0.,0.235749651497));
#299 = CARTESIAN_POINT('',(0.900005885884,0.,0.261768856306));
#300 = CARTESIAN_POINT('',(0.950007600007,0.,0.287807343472));
#301 = CARTESIAN_POINT('',(1.000007150692,0.,0.313885454418));
#302 = CARTESIAN_POINT('',(1.050007283214,0.,0.339997751246));
#303 = CARTESIAN_POINT('',(1.100007261628,0.,0.366145715855));
#304 = CARTESIAN_POINT('',(1.150007283051,0.,0.392328984243));
#305 = CARTESIAN_POINT('',(1.200007294211,0.,0.418547695684));
#306 = CARTESIAN_POINT('',(1.250007310183,0.,0.444801860189));
#307 = CARTESIAN_POINT('',(1.300007325898,0.,0.471091533077));
#308 = CARTESIAN_POINT('',(1.350007343299,0.,0.497416761827));
#309 = CARTESIAN_POINT('',(1.400007361453,0.,0.523777604253));
#310 = CARTESIAN_POINT('',(1.450007380687,0.,0.550174120865));
#311 = CARTESIAN_POINT('',(1.50000740062,0.,0.576606377798));
#312 = CARTESIAN_POINT('',(1.550007421778,0.,0.603074444006));
#313 = CARTESIAN_POINT('',(1.600007443173,0.,0.629578394913));
#314 = CARTESIAN_POINT('',(1.650007465906,0.,0.656118306184));
#315 = CARTESIAN_POINT('',(1.700007489055,0.,0.682694260526));
#316 = CARTESIAN_POINT('',(1.750007512516,0.,0.709306342271));
#317 = CARTESIAN_POINT('',(1.800007537258,0.,0.735954636751));
#318 = CARTESIAN_POINT('',(1.850007561849,0.,0.762639236211));
#319 = CARTESIAN_POINT('',(1.900007587626,0.,0.789360230901));
#320 = CARTESIAN_POINT('',(1.950007613103,0.,0.816117717827));
#321 = CARTESIAN_POINT('',(2.000007639733,0.,0.842911791223));
#322 = CARTESIAN_POINT('',(2.050007666327,0.,0.869742551694));
#323 = CARTESIAN_POINT('',(2.100007693152,0.,0.896610098944));
#324 = CARTESIAN_POINT('',(2.150007720658,0.,0.923514533688));
#325 = CARTESIAN_POINT('',(2.200007748261,0.,0.950455959932));
#326 = CARTESIAN_POINT('',(2.250007775788,0.,0.977434481923));
#327 = CARTESIAN_POINT('',(2.300007804037,0.,1.004450203111));
#328 = CARTESIAN_POINT('',(2.350007832292,0.,1.031503230566));
#329 = CARTESIAN_POINT('',(2.400007860097,0.,1.058593671256));
#330 = CARTESIAN_POINT('',(2.450007888977,0.,1.085721629177));
#331 = CARTESIAN_POINT('',(2.500007917241,0.,1.112887214273));
#332 = CARTESIAN_POINT('',(2.550007945596,0.,1.140090532566));
#333 = CARTESIAN_POINT('',(2.600007974239,0.,1.167331690656));
#334 = CARTESIAN_POINT('',(2.650008002683,0.,1.194610796415));
#335 = CARTESIAN_POINT('',(2.700008031046,0.,1.221927956434));
#336 = CARTESIAN_POINT('',(2.750008059446,0.,1.249283276851));
#337 = CARTESIAN_POINT('',(2.800008088024,0.,1.276676863606));
#338 = CARTESIAN_POINT('',(2.85000811562,0.,1.30410882392));
#339 = CARTESIAN_POINT('',(2.900008144173,0.,1.33157925907));
#340 = CARTESIAN_POINT('',(2.950008171541,0.,1.359088276186));
#341 = CARTESIAN_POINT('',(3.000008199785,0.,1.386635975057));
#342 = CARTESIAN_POINT('',(3.050008227088,0.,1.414222460826));
#343 = CARTESIAN_POINT('',(3.100008254116,0.,1.441847833198));
#344 = CARTESIAN_POINT('',(3.150008281608,0.,1.469512190531));
#345 = CARTESIAN_POINT('',(3.200008308341,0.,1.497215633642));
#346 = CARTESIAN_POINT('',(3.250008334677,0.,1.524958259161));
#347 = CARTESIAN_POINT('',(3.300008360865,0.,1.552740161997));
#348 = CARTESIAN_POINT('',(3.350008387442,0.,1.580561435803));
#349 = CARTESIAN_POINT('',(3.400008412418,0.,1.60842217688));
#350 = CARTESIAN_POINT('',(3.450008438399,0.,1.636322472384));
#351 = CARTESIAN_POINT('',(3.500008463006,0.,1.66426241567));
#352 = CARTESIAN_POINT('',(3.55000848755,0.,1.692242092364));
#353 = CARTESIAN_POINT('',(3.600008512513,0.,1.720261587994));
#354 = CARTESIAN_POINT('',(3.650008536102,0.,1.748320990376));
#355 = CARTESIAN_POINT('',(3.700008559378,0.,1.776420380254));
#356 = CARTESIAN_POINT('',(3.750008583429,0.,1.804559836586));
#357 = CARTESIAN_POINT('',(3.800008605157,0.,1.832739443211));
#358 = CARTESIAN_POINT('',(3.850008628534,0.,1.860959270805));
#359 = CARTESIAN_POINT('',(3.90000865004,0.,1.889219400007));
#360 = CARTESIAN_POINT('',(3.950008671502,0.,1.917519900906));
#361 = CARTESIAN_POINT('',(4.000008693132,0.,1.945860843991));
#362 = CARTESIAN_POINT('',(4.05000871339,0.,1.974242300694));
#363 = CARTESIAN_POINT('',(4.10000873348,0.,2.002664335477));
#364 = CARTESIAN_POINT('',(4.150008754027,0.,2.031127012073));
#365 = CARTESIAN_POINT('',(4.200008773336,0.,2.059630396652));
#366 = CARTESIAN_POINT('',(4.250008791691,0.,2.088174549199));
#367 = CARTESIAN_POINT('',(4.300008810171,0.,2.116759525272));
#368 = CARTESIAN_POINT('',(4.35000882879,0.,2.145385381009));
#369 = CARTESIAN_POINT('',(4.400008846324,0.,2.174052173289));
#370 = CARTESIAN_POINT('',(4.450008862807,0.,2.202759953816));
#371 = CARTESIAN_POINT('',(4.50000887955,0.,2.231508769244));
#372 = CARTESIAN_POINT('',(4.550008896146,0.,2.260298667607));
#373 = CARTESIAN_POINT('',(4.600008911444,0.,2.28912969636));
#374 = CARTESIAN_POINT('',(4.650008926507,0.,2.318001896662));
#375 = CARTESIAN_POINT('',(4.700008941962,0.,2.346915308424));
#376 = CARTESIAN_POINT('',(4.750008955098,0.,2.375869974419));
#377 = CARTESIAN_POINT('',(4.800008969735,0.,2.404865924842));
#378 = CARTESIAN_POINT('',(4.850008982267,0.,2.433903199104));
#379 = CARTESIAN_POINT('',(4.900008995791,0.,2.462981824608));
#380 = CARTESIAN_POINT('',(4.950009007046,0.,2.492101835664));
#381 = CARTESIAN_POINT('',(5.000009020091,0.,2.521263253772));
#382 = CARTESIAN_POINT('',(5.05000903095,0.,2.550466110967));
#383 = CARTESIAN_POINT('',(5.100009041459,0.,2.579710427521));
#384 = CARTESIAN_POINT('',(5.150009051555,0.,2.608996223316));
#385 = CARTESIAN_POINT('',(5.200009062707,0.,2.638323515178));
#386 = CARTESIAN_POINT('',(5.250009070496,0.,2.66769232683));
#387 = CARTESIAN_POINT('',(5.300009081107,0.,2.697102663596));
#388 = CARTESIAN_POINT('',(5.350009088141,0.,2.726554547315));
#389 = CARTESIAN_POINT('',(5.400009096364,0.,2.756047980402));
#390 = CARTESIAN_POINT('',(5.450009104281,0.,2.78558297285));
#391 = CARTESIAN_POINT('',(5.50000911168,0.,2.815159532157));
#392 = CARTESIAN_POINT('',(5.550009116974,0.,2.84477766449));
#393 = CARTESIAN_POINT('',(5.600009123832,0.,2.874437365329));
#394 = CARTESIAN_POINT('',(5.650009130261,0.,2.904138638218));
#395 = CARTESIAN_POINT('',(5.700009133673,0.,2.933881485176));
#396 = CARTESIAN_POINT('',(5.750009139504,0.,2.963665892822));
#397 = CARTESIAN_POINT('',(5.800009143075,0.,2.993491861351));
#398 = CARTESIAN_POINT('',(5.850009147465,0.,3.023359378504));
#399 = CARTESIAN_POINT('',(5.900009150749,0.,3.053268437353));
#400 = CARTESIAN_POINT('',(5.950009153089,0.,3.083219025475));
#401 = CARTESIAN_POINT('',(6.00000915612,0.,3.113211125878));
#402 = CARTESIAN_POINT('',(6.050009156946,0.,3.143244726254));
#403 = CARTESIAN_POINT('',(6.100009160586,0.,3.173319801843));
#404 = CARTESIAN_POINT('',(6.150009159395,0.,3.203436344476));
#405 = CARTESIAN_POINT('',(6.200009162528,0.,3.233594319559));
#406 = CARTESIAN_POINT('',(6.250009160592,0.,3.263793717173));
#407 = CARTESIAN_POINT('',(6.300009161073,0.,3.294034500285));
#408 = CARTESIAN_POINT('',(6.350009161069,0.,3.324316645722));
#409 = CARTESIAN_POINT('',(6.400009159344,0.,3.354640127246));
#410 = CARTESIAN_POINT('',(6.450009158389,0.,3.385004910597));
#411 = CARTESIAN_POINT('',(6.500009156101,0.,3.415410966145));
#412 = CARTESIAN_POINT('',(6.550009154193,0.,3.445858257448));
#413 = CARTESIAN_POINT('',(6.600009151981,0.,3.476346750288));
#414 = CARTESIAN_POINT('',(6.650009147497,0.,3.506876409744));
#415 = CARTESIAN_POINT('',(6.700009145357,0.,3.537447189578));
#416 = CARTESIAN_POINT('',(6.750009142109,0.,3.568059055348));
#417 = CARTESIAN_POINT('',(6.800009135713,0.,3.598711967967));
#418 = CARTESIAN_POINT('',(6.850009133397,0.,3.629405872244));
#419 = CARTESIAN_POINT('',(6.900009126181,0.,3.660140735395));
#420 = CARTESIAN_POINT('',(6.950009123893,0.,3.690916497652));
#421 = CARTESIAN_POINT('',(7.000009115018,0.,3.72173312724));
#422 = CARTESIAN_POINT('',(7.050009110899,0.,3.752590557296));
#423 = CARTESIAN_POINT('',(7.100009103035,0.,3.783488747708));
#424 = CARTESIAN_POINT('',(7.150009098197,0.,3.814427637198));
#425 = CARTESIAN_POINT('',(7.200009089428,0.,3.845407181876));
#426 = CARTESIAN_POINT('',(7.250009081773,0.,3.876427318014));
#427 = CARTESIAN_POINT('',(7.30000907607,0.,3.907487987656));
#428 = CARTESIAN_POINT('',(7.350009065496,0.,3.938589143179));
#429 = CARTESIAN_POINT('',(7.400009058524,0.,3.969730712279));
#430 = CARTESIAN_POINT('',(7.450009047759,0.,4.000912643056));
#431 = CARTESIAN_POINT('',(7.500009042075,0.,4.03213486213));
#432 = CARTESIAN_POINT('',(7.550009029616,0.,4.063397323741));
#433 = CARTESIAN_POINT('',(7.600009019813,0.,4.094699948329));
#434 = CARTESIAN_POINT('',(7.650009012765,0.,4.126042669816));
#435 = CARTESIAN_POINT('',(7.70000899876,0.,4.15742543606));
#436 = CARTESIAN_POINT('',(7.750008990156,0.,4.188848160412));
#437 = CARTESIAN_POINT('',(7.80000897812,0.,4.220310784843));
#438 = CARTESIAN_POINT('',(7.850008967673,0.,4.25181323245));
#439 = CARTESIAN_POINT('',(7.90000895508,0.,4.283355436457));
#440 = CARTESIAN_POINT('',(7.950008944638,0.,4.314937318395));
#441 = CARTESIAN_POINT('',(8.000008931363,0.,4.346558811651));
#442 = CARTESIAN_POINT('',(8.050008919113,0.,4.378219835367));
#443 = CARTESIAN_POINT('',(8.100008906169,0.,4.409920315018));
#444 = CARTESIAN_POINT('',(8.150008894459,0.,4.441660171772));
#445 = CARTESIAN_POINT('',(8.200008880209,0.,4.4734393337));
#446 = CARTESIAN_POINT('',(8.250008866285,0.,4.50525771679));
#447 = CARTESIAN_POINT('',(8.300008852814,0.,4.537115239519));
#448 = CARTESIAN_POINT('',(8.35000884011,0.,4.569011821923));
#449 = CARTESIAN_POINT('',(8.400008825608,0.,4.600947387575));
#450 = CARTESIAN_POINT('',(8.450008807788,0.,4.632921853762));
#451 = CARTESIAN_POINT('',(8.500008798583,0.,4.664935119908));
#452 = CARTESIAN_POINT('',(8.550008779558,0.,4.696987128531));
#453 = CARTESIAN_POINT('',(8.600008764254,0.,4.729077774539));
#454 = CARTESIAN_POINT('',(8.650008753331,0.,4.76120697111));
#455 = CARTESIAN_POINT('',(8.70000873165,0.,4.793374653138));
#456 = CARTESIAN_POINT('',(8.750008719322,0.,4.825580703372));
#457 = CARTESIAN_POINT('',(8.800008703628,0.,4.857825051357));
#458 = CARTESIAN_POINT('',(8.850008686916,0.,4.890107607469));
#459 = CARTESIAN_POINT('',(8.900008667,0.,4.922428281741));
#460 = CARTESIAN_POINT('',(8.950008656351,0.,4.954786965961));
#461 = CARTESIAN_POINT('',(9.000008635173,0.,4.987183597915));
#462 = CARTESIAN_POINT('',(9.05000861817,0.,5.019618064637));
#463 = CARTESIAN_POINT('',(9.100008604434,0.,5.052090273993));
#464 = CARTESIAN_POINT('',(9.150008581995,0.,5.084600149752));
#465 = CARTESIAN_POINT('',(9.200008569282,0.,5.11714757304));
#466 = CARTESIAN_POINT('',(9.25000854808,0.,5.149732473801));
#467 = CARTESIAN_POINT('',(9.30000853024,0.,5.182354740021));
#468 = CARTESIAN_POINT('',(9.350008514879,0.,5.215014276909));
#469 = CARTESIAN_POINT('',(9.400008493001,0.,5.247711001463));
#470 = CARTESIAN_POINT('',(9.450008477992,0.,5.280444799075));
#471 = CARTESIAN_POINT('',(9.500008456559,0.,5.313215589826));
#472 = CARTESIAN_POINT('',(9.550008438493,0.,5.346023261685));
#473 = CARTESIAN_POINT('',(9.600008419339,0.,5.378867721022));
#474 = CARTESIAN_POINT('',(9.650008402738,0.,5.411748866518));
#475 = CARTESIAN_POINT('',(9.700008380168,0.,5.444666611065));
#476 = CARTESIAN_POINT('',(9.750008361869,0.,5.47762083912));
#477 = CARTESIAN_POINT('',(9.800008343067,0.,5.510611456154));
#478 = CARTESIAN_POINT('',(9.850008322891,0.,5.543638363784));
#479 = CARTESIAN_POINT('',(9.900008300952,0.,5.576701459824));
#480 = CARTESIAN_POINT('',(9.950008286581,0.,5.609800631572));
#481 = CARTESIAN_POINT('',(10.000008261508,0.,5.642935803574));
#482 = CARTESIAN_POINT('',(10.050008242713,0.,5.676106849488));
#483 = CARTESIAN_POINT('',(10.100008222823,0.,5.709313674088));
#484 = CARTESIAN_POINT('',(10.150008200168,0.,5.742556176495));
#485 = CARTESIAN_POINT('',(10.200008185272,0.,5.775834241344));
#486 = CARTESIAN_POINT('',(10.250008156534,0.,5.809147793247));
#487 = CARTESIAN_POINT('',(10.300008144027,0.,5.84249668853));
#488 = CARTESIAN_POINT('',(10.350008118075,0.,5.875880862863));
#489 = CARTESIAN_POINT('',(10.400008096912,0.,5.909300186954));
#490 = CARTESIAN_POINT('',(10.450008080354,0.,5.942754555704));
#491 = CARTESIAN_POINT('',(10.500008054156,0.,5.976243884607));
#492 = CARTESIAN_POINT('',(10.550008035538,0.,6.009768044288));
#493 = CARTESIAN_POINT('',(10.600008011773,0.,6.043326943071));
#494 = CARTESIAN_POINT('',(10.650007992863,0.,6.076920462766));
#495 = CARTESIAN_POINT('',(10.700007971675,0.,6.110548509377));
#496 = CARTESIAN_POINT('',(10.750007949672,0.,6.144210976907));
#497 = CARTESIAN_POINT('',(10.800007924938,0.,6.17790775859));
#498 = CARTESIAN_POINT('',(10.85000790746,0.,6.21163873271));
#499 = CARTESIAN_POINT('',(10.900007879968,0.,6.245403813992));
#500 = CARTESIAN_POINT('',(10.950007866223,0.,6.279202867166));
#501 = CARTESIAN_POINT('',(11.000007838122,0.,6.313035823751));
#502 = CARTESIAN_POINT('',(11.050007816257,0.,6.346902547822));
#503 = CARTESIAN_POINT('',(11.100007798889,0.,6.380802933554));
#504 = CARTESIAN_POINT('',(11.150007771996,0.,6.414736894247));
#505 = CARTESIAN_POINT('',(11.200007750244,0.,6.448704300672));
#506 = CARTESIAN_POINT('',(11.250007728405,0.,6.482705048921));
#507 = CARTESIAN_POINT('',(11.300007709178,0.,6.516739031373));
#508 = CARTESIAN_POINT('',(11.350007682725,0.,6.550806154693));
#509 = CARTESIAN_POINT('',(11.400007661222,0.,6.584906292218));
#510 = CARTESIAN_POINT('',(11.450007638397,0.,6.619039341985));
#511 = CARTESIAN_POINT('',(11.500007621094,0.,6.653205191269));
#512 = CARTESIAN_POINT('',(11.550007587482,0.,6.687403758696));
#513 = CARTESIAN_POINT('',(11.600007578372,0.,6.72163488328));
#514 = CARTESIAN_POINT('',(11.650007545097,0.,6.755898520532));
#515 = CARTESIAN_POINT('',(11.700007526238,0.,6.790194511531));
#516 = CARTESIAN_POINT('',(11.750007503825,0.,6.824522768324));
#517 = CARTESIAN_POINT('',(11.800007481045,0.,6.858883181582));
#518 = CARTESIAN_POINT('',(11.850007456324,0.,6.893275644085));
#519 = CARTESIAN_POINT('',(11.900007435256,0.,6.927700038935));
#520 = CARTESIAN_POINT('',(11.950007413522,0.,6.962156265785));
#521 = CARTESIAN_POINT('',(11.983335799461,-0.,6.985144833205));
#522 = CARTESIAN_POINT('',(12.,0.,6.996644390674));
#523 = AXIS1_PLACEMENT('',#524,#525);
#524 = CARTESIAN_POINT('',(0.,0.,0.));
#525 = DIRECTION('',(0.,0.,1.));
#526 = ADVANCED_FACE('',(#527,#530),#541,.F.);
#527 = FACE_BOUND('',#528,.T.);
#528 = EDGE_LOOP('',(#529));
#529 = ORIENTED_EDGE('',*,*,#271,.T.);
#530 = FACE_BOUND('',#531,.T.);
#531 = EDGE_LOOP('',(#532));
#532 = ORIENTED_EDGE('',*,*,#533,.F.);
#533 = EDGE_CURVE('',#534,#534,#536,.T.);
#534 = VERTEX_POINT('',#535);
#535 = CARTESIAN_POINT('',(12.7,0.,6.996644390674));
#536 = CIRCLE('',#537,12.7);
#537 = AXIS2_PLACEMENT_3D('',#538,#539,#540);
#538 = CARTESIAN_POINT('',(0.,0.,6.996644390674));
#539 = DIRECTION('',(0.,0.,1.));
#540 = DIRECTION('',(1.,0.,-0.));
#541 = PLANE('',#542);
#542 = AXIS2_PLACEMENT_3D('',#543,#544,#545);
#543 = CARTESIAN_POINT('',(0.,0.,6.996644390674));
#544 = DIRECTION('',(0.,0.,1.));
#545 = DIRECTION('',(1.,0.,-0.));
#546 = ADVANCED_FACE('',(#547),#566,.T.);
#547 = FACE_BOUND('',#548,.T.);
#548 = EDGE_LOOP('',(#549,#550,#558,#565));
#549 = ORIENTED_EDGE('',*,*,#533,.T.);
#550 = ORIENTED_EDGE('',*,*,#551,.T.);
#551 = EDGE_CURVE('',#534,#552,#554,.T.);
#552 = VERTEX_POINT('',#553);
#553 = CARTESIAN_POINT('',(12.7,0.,7.996644390674));
#554 = LINE('',#555,#556);
#555 = CARTESIAN_POINT('',(12.7,0.,6.996644390674));
#556 = VECTOR('',#557,1.);
#557 = DIRECTION('',(0.,0.,1.));
#558 = ORIENTED_EDGE('',*,*,#559,.F.);
#559 = EDGE_CURVE('',#552,#552,#560,.T.);
#560 = CIRCLE('',#561,12.7);
#561 = AXIS2_PLACEMENT_3D('',#562,#563,#564);
#562 = CARTESIAN_POINT('',(0.,0.,7.996644390674));
#563 = DIRECTION('',(0.,0.,1.));
#564 = DIRECTION('',(1.,0.,-0.));
#565 = ORIENTED_EDGE('',*,*,#551,.F.);
#566 = CYLINDRICAL_SURFACE('',#567,12.7);
#567 = AXIS2_PLACEMENT_3D('',#568,#569,#570);
#568 = CARTESIAN_POINT('',(0.,0.,6.996644390674));
#569 = DIRECTION('',(0.,0.,1.));
#570 = DIRECTION('',(1.,0.,-0.));
#571 = ADVANCED_FACE('',(#572),#575,.T.);
#572 = FACE_BOUND('',#573,.T.);
#573 = EDGE_LOOP('',(#574));
#574 = ORIENTED_EDGE('',*,*,#559,.T.);
#575 = PLANE('',#576);
#576 = AXIS2_PLACEMENT_3D('',#577,#578,#579);
#577 = CARTESIAN_POINT('',(0.,0.,7.996644390674));
#578 = DIRECTION('',(0.,0.,1.));
#579 = DIRECTION('',(1.,0.,-0.));
#580 = ( GEOMETRIC_REPRESENTATION_CONTEXT(3) 
GLOBAL_UNCERTAINTY_ASSIGNED_CONTEXT((#584)) GLOBAL_UNIT_ASSIGNED_CONTEXT
((#581,#582,#583)) REPRESENTATION_CONTEXT('Context #1',
  '3D Context with UNIT and UNCERTAINTY') );
#581 = ( LENGTH_UNIT() NAMED_UNIT(*) SI_UNIT(.MILLI.,.METRE.) );
#582 = ( NAMED_UNIT(*) PLANE_ANGLE_UNIT() SI_UNIT($,.RADIAN.) );
#583 = ( NAMED_UNIT(*) SI_UNIT($,.STERADIAN.) SOLID_ANGLE_UNIT() );
#584 = UNCERTAINTY_MEASURE_WITH_UNIT(LENGTH_MEASURE(1.E-07),#581,
  'distance_accuracy_value','confusion accuracy');
#585 = PRODUCT_RELATED_PRODUCT_CATEGORY('part',$,(#7));
ENDSEC;
END-ISO-10303-21;
